<svg width="24" height="24" viewBox="0 0 24 24" fill="none" xmlns="http://www.w3.org/2000/svg">
<g clip-path="url(#clip0_22_673)">
<path d="M21.3333 9.33333V21.3333H2.64V2.66667H14.64V0H2.66667C1.2 0 0 1.2 0 2.66667V21.3333C0 22.8 1.2 24 2.66667 24H21.3333C22.8 24 24 22.8 24 21.3333V9.33333H21.3333ZM18.64 9.33333L19.8933 6.58667L22.64 5.33333L19.8933 4.08L18.64 1.33333L17.3867 4.08L14.64 5.33333L17.3867 6.58667L18.64 9.33333ZM13.64 10.3333L11.9733 6.66667L10.3067 10.3333L6.64 12L10.3067 13.6667L11.9733 17.3333L13.64 13.6667L17.3067 12L13.64 10.3333Z" fill="#ACF3FF" fill-opacity="0.9"/>
</g>
<defs>
<clipPath id="clip0_22_673">
<rect width="24" height="24" fill="white"/>
</clipPath>
</defs>
</svg>
