<svg width="30" height="30" viewBox="0 0 30 30" fill="none" xmlns="http://www.w3.org/2000/svg">
<g filter="url(#filter0_d_22_162)">
<path d="M14.4265 6.62205C14.7709 6.38103 15.2291 6.38103 15.5735 6.62205L23.0258 11.8387L15.4061 15.2251C15.1476 15.3401 14.8524 15.3401 14.5939 15.2251L6.97425 11.8387L14.4265 6.62205ZM6 13.5943L13.7816 17.0528C14.5573 17.3975 15.4427 17.3975 16.2184 17.0528L24 13.5943V23C24 23.5523 23.5523 24 23 24H7C6.44772 24 6 23.5523 6 23V13.5943ZM16.7204 4.98359C15.6874 4.26052 14.3126 4.26052 13.2796 4.98359L5.27961 10.5836C4.47763 11.145 4 12.0623 4 13.0413V23C4 24.6568 5.34315 26 7 26H23C24.6569 26 26 24.6568 26 23V13.0413C26 12.0623 25.5224 11.145 24.7204 10.5836L16.7204 4.98359Z" fill="#0BD9FB" fill-opacity="0.7"/>
</g>
<defs>
<filter id="filter0_d_22_162" x="-1" y="-1" width="32" height="32" filterUnits="userSpaceOnUse" color-interpolation-filters="sRGB">
<feFlood flood-opacity="0" result="BackgroundImageFix"/>
<feColorMatrix in="SourceAlpha" type="matrix" values="0 0 0 0 0 0 0 0 0 0 0 0 0 0 0 0 0 0 127 0" result="hardAlpha"/>
<feOffset/>
<feGaussianBlur stdDeviation="2"/>
<feComposite in2="hardAlpha" operator="out"/>
<feColorMatrix type="matrix" values="0 0 0 0 0 0 0 0 0 0 0 0 0 0 0 0 0 0 0.25 0"/>
<feBlend mode="normal" in2="BackgroundImageFix" result="effect1_dropShadow_22_162"/>
<feBlend mode="normal" in="SourceGraphic" in2="effect1_dropShadow_22_162" result="shape"/>
</filter>
</defs>
</svg>
