<svg width="32" height="34" viewBox="0 0 32 34" fill="none" xmlns="http://www.w3.org/2000/svg">
<g filter="url(#filter0_d_20_1753)">
<path d="M19.6666 26.3333C19.6666 28.36 18.0266 30 16 30C13.9733 30 12.3333 28.36 12.3333 26.3333C12.3333 24.3067 13.9733 22.6667 16 22.6667C18.0266 22.6667 19.6666 24.3067 19.6666 26.3333ZM14.3333 26.3333C14.3333 27.2533 15.08 28 16 28C16.92 28 17.6666 27.2533 17.6666 26.3333C17.6666 25.4133 16.92 24.6667 16 24.6667C15.08 24.6667 14.3333 25.4133 14.3333 26.3333Z" fill="white" fill-opacity="0.8"/>
<path d="M19.6666 7.66668C19.6666 9.69334 18.0266 11.3333 16 11.3333C13.9733 11.3333 12.3333 9.69334 12.3333 7.66668C12.3333 5.64001 13.9733 4.00001 16 4.00001C18.0266 4.00001 19.6666 5.64001 19.6666 7.66668ZM14.3333 7.66668C14.3333 8.58668 15.08 9.33334 16 9.33334C16.92 9.33334 17.6666 8.58668 17.6666 7.66668C17.6666 6.74668 16.92 6.00001 16 6.00001C15.08 6.00001 14.3333 6.74668 14.3333 7.66668Z" fill="white" fill-opacity="0.8"/>
<path d="M19.6666 17C19.6666 19.0267 18.0266 20.6667 16 20.6667C13.9733 20.6667 12.3333 19.0267 12.3333 17C12.3333 14.9733 13.9733 13.3333 16 13.3333C18.0266 13.3333 19.6666 14.9733 19.6666 17ZM14.3333 17C14.3333 17.92 15.08 18.6667 16 18.6667C16.92 18.6667 17.6666 17.92 17.6666 17C17.6666 16.08 16.92 15.3333 16 15.3333C15.08 15.3333 14.3333 16.08 14.3333 17Z" fill="white" fill-opacity="0.8"/>
</g>
<defs>
<filter id="filter0_d_20_1753" x="-4" y="-3" width="40" height="40" filterUnits="userSpaceOnUse" color-interpolation-filters="sRGB">
<feFlood flood-opacity="0" result="BackgroundImageFix"/>
<feColorMatrix in="SourceAlpha" type="matrix" values="0 0 0 0 0 0 0 0 0 0 0 0 0 0 0 0 0 0 127 0" result="hardAlpha"/>
<feOffset/>
<feGaussianBlur stdDeviation="2"/>
<feComposite in2="hardAlpha" operator="out"/>
<feColorMatrix type="matrix" values="0 0 0 0 0 0 0 0 0 0 0 0 0 0 0 0 0 0 0.25 0"/>
<feBlend mode="normal" in2="BackgroundImageFix" result="effect1_dropShadow_20_1753"/>
<feBlend mode="normal" in="SourceGraphic" in2="effect1_dropShadow_20_1753" result="shape"/>
</filter>
</defs>
</svg>
