<svg width="115" height="115" viewBox="0 0 115 115" fill="none" xmlns="http://www.w3.org/2000/svg">
<path d="M48.4459 90.2091L24.3424 66.1056C23.8174 65.5806 23.5548 64.8408 23.6026 64.0771C23.6503 63.3134 24.0799 62.6452 24.7004 62.2157C25.0345 61.977 25.3686 61.7384 25.6549 61.452C27.946 59.161 27.946 55.3903 25.6549 53.0993C25.3686 52.8129 25.0345 52.5265 24.7004 52.3356C24.0799 51.906 23.6742 51.214 23.6026 50.4742C23.531 49.7343 23.7935 48.9945 24.3424 48.4456L48.4459 24.3421C48.9709 23.8171 49.7107 23.5546 50.4744 23.6023C51.2381 23.6501 51.8824 24.0558 52.3359 24.7001C52.5268 25.0342 52.8132 25.3683 53.0995 25.6547C55.3906 27.9457 59.1612 27.9457 61.4522 25.6547C61.7386 25.3683 62.025 25.0342 62.2159 24.7001C62.6455 24.0796 63.3376 23.6739 64.0774 23.6023C64.8172 23.5307 65.557 23.7932 66.1059 24.3421L90.2094 48.4456C90.7344 48.9707 90.9969 49.7105 90.9492 50.4742C90.9015 51.2378 90.4719 51.906 89.8514 52.3356C89.5173 52.5743 89.1832 52.8129 88.8968 53.0993C86.6058 55.3903 86.6058 59.161 88.8968 61.452C89.1832 61.7384 89.5173 62.0247 89.8514 62.2157C90.4719 62.6452 90.8776 63.3373 90.9492 64.0771C91.0208 64.8169 90.7583 65.5567 90.2094 66.1056L66.1059 90.2091C65.5808 90.7342 64.841 90.9967 64.0774 90.9489C63.3137 90.9012 62.6455 90.4717 62.2159 89.8512C61.9773 89.5171 61.7386 89.1829 61.4522 88.8966C59.1612 86.6055 55.3906 86.6055 53.0995 88.8966C52.8132 89.1829 52.5268 89.5171 52.3359 89.8512C51.9063 90.4717 51.2142 90.8774 50.4744 90.9489C49.7346 91.0205 48.9709 90.7342 48.4459 90.2091ZM29.8074 64.4112L50.1403 84.7441C54.2212 81.236 60.3306 81.236 64.4115 84.7441L84.7443 64.4112C81.2362 60.3303 81.2362 54.2209 84.7443 50.14L64.4115 29.8072C60.3306 33.3153 54.2212 33.3153 50.1403 29.8072L29.8074 50.14C33.3156 54.2209 33.3156 60.3303 29.8074 64.4112Z" fill="url(#paint0_linear_520_262)"/>
<path d="M49.5198 29.2344C48.9948 28.7094 48.5413 28.1605 48.1356 27.5639C45.248 23.1966 45.8446 17.3975 49.5198 13.7223C53.7916 9.45046 60.7601 9.45046 65.032 13.7223C68.7071 17.3975 69.3038 23.1966 66.44 27.54C66.0104 28.1605 65.557 28.7094 65.032 29.2344C60.7601 33.5062 53.7916 33.5062 49.5198 29.2344ZM61.4522 17.302C59.1612 15.011 55.3906 15.011 53.0995 17.302C51.1187 19.2828 50.8085 22.4091 52.3597 24.724C52.5268 25.0342 52.8132 25.3683 53.0995 25.6547C55.3906 27.9457 59.1612 27.9457 61.4522 25.6547C61.7386 25.3683 62.025 25.0342 62.2159 24.7001C63.7433 22.4091 63.433 19.2828 61.4522 17.302Z" fill="url(#paint1_linear_520_262)"/>
<path d="M85.3172 65.0317C81.0454 60.7599 81.0454 53.7914 85.3172 49.5196C85.8422 48.9945 86.3911 48.5411 86.9877 48.1354C91.355 45.2478 97.1541 45.8444 100.829 49.5196C105.101 53.7914 105.101 60.7599 100.829 65.0317C97.1541 68.7069 91.355 69.3035 87.0116 66.4397C86.3911 66.0102 85.8422 65.5567 85.3172 65.0317ZM97.2496 53.0993C95.2688 51.1185 92.1425 50.8083 89.8276 52.3595C89.5174 52.5743 89.1833 52.8129 88.8969 53.0993C86.6059 55.3903 86.6059 59.161 88.8969 61.452C89.1833 61.7384 89.5174 62.0248 89.8515 62.2157C92.1425 63.743 95.2688 63.4328 97.2496 61.452C99.5406 59.161 99.5406 55.3903 97.2496 53.0993Z" fill="url(#paint2_linear_520_262)"/>
<path d="M13.7224 65.0317C9.45063 60.7599 9.45063 53.7914 13.7224 49.5196C17.3976 45.8444 23.1968 45.2478 27.5402 48.1115C28.1368 48.5172 28.7096 48.9945 29.2346 49.5196C33.5064 53.7914 33.5064 60.7599 29.2346 65.0317C28.7096 65.5567 28.1607 66.0102 27.5641 66.4159C23.1968 69.3035 17.3976 68.7069 13.7224 65.0317ZM25.6549 53.0993C25.3685 52.8129 25.0344 52.5265 24.7003 52.3356C22.4092 50.8083 19.2829 51.1185 17.3022 53.0993C15.0111 55.3903 15.0111 59.161 17.3022 61.452C19.2829 63.4328 22.4092 63.743 24.7241 62.1918C25.0344 61.977 25.3685 61.7384 25.6549 61.452C27.9459 59.161 27.9459 55.3903 25.6549 53.0993Z" fill="url(#paint3_linear_520_262)"/>
<path d="M49.5198 100.829C45.8446 97.1538 45.248 91.3547 48.1118 87.0113C48.5175 86.4146 48.9948 85.8419 49.5198 85.3169C53.7916 81.0451 60.7601 81.0451 65.032 85.3169C65.557 85.8419 66.0104 86.3908 66.4161 86.9874C69.3038 91.3547 68.7071 97.1538 65.032 100.829C60.7601 105.101 53.7916 105.101 49.5198 100.829ZM61.4522 88.8966C59.1612 86.6056 55.3906 86.6056 53.0995 88.8966C52.8132 89.183 52.5268 89.5171 52.3359 89.8512C50.8085 92.1422 51.1187 95.2685 53.0995 97.2493C55.3906 99.5403 59.1612 99.5403 61.4522 97.2493C63.433 95.2685 63.7433 92.1422 62.192 89.8273C62.025 89.5171 61.7386 89.183 61.4522 88.8966Z" fill="url(#paint4_linear_520_262)"/>
<defs>
<linearGradient id="paint0_linear_520_262" x1="57.2759" y1="15.5121" x2="16.2801" y2="65.2465" gradientUnits="userSpaceOnUse">
<stop stop-color="#272B2D"/>
<stop offset="1" stop-color="#32383C"/>
</linearGradient>
<linearGradient id="paint1_linear_520_262" x1="57.2759" y1="5.96619" x2="42.0489" y2="24.4389" gradientUnits="userSpaceOnUse">
<stop stop-color="#272B2D"/>
<stop offset="1" stop-color="#32383C"/>
</linearGradient>
<linearGradient id="paint2_linear_520_262" x1="93.0732" y1="41.7635" x2="77.8462" y2="60.2363" gradientUnits="userSpaceOnUse">
<stop stop-color="#272B2D"/>
<stop offset="1" stop-color="#32383C"/>
</linearGradient>
<linearGradient id="paint3_linear_520_262" x1="21.4785" y1="41.7635" x2="6.25151" y2="60.2363" gradientUnits="userSpaceOnUse">
<stop stop-color="#272B2D"/>
<stop offset="1" stop-color="#32383C"/>
</linearGradient>
<linearGradient id="paint4_linear_520_262" x1="57.2759" y1="77.5608" x2="42.0489" y2="96.0336" gradientUnits="userSpaceOnUse">
<stop stop-color="#272B2D"/>
<stop offset="1" stop-color="#32383C"/>
</linearGradient>
</defs>
</svg>
