<svg width="45" height="44" viewBox="0 0 45 44" fill="none" xmlns="http://www.w3.org/2000/svg">
<g clip-path="url(#clip0_20_1776)">
<path d="M18.5358 12.6602C20.5625 9.14996 25.0488 7.95273 28.5533 9.97606C32.0578 11.9994 33.2642 16.4833 31.2375 19.9936L24.2375 32.1179C22.7642 34.6698 19.5039 35.5434 16.952 34.0701C14.4002 32.5967 13.5266 29.3365 14.9999 26.7846L20.6666 16.9697C21.5866 15.3762 23.6265 14.8296 25.22 15.7496C26.8135 16.6696 27.3601 18.7095 26.4401 20.303L21.4401 28.9632L19.708 27.9632L24.708 19.303C25.0747 18.6679 24.8608 17.8516 24.22 17.4816C23.5791 17.1116 22.7653 17.3346 22.3986 17.9697L16.732 27.7846C15.812 29.3781 16.3586 31.418 17.952 32.338C19.5455 33.258 21.5855 32.7114 22.5055 31.1179L29.5055 18.9936C30.9788 16.4417 30.1052 13.1814 27.5533 11.7081C25.0014 10.2348 21.7412 11.1084 20.2679 13.6602L13.9345 24.6299L12.2025 23.6299L18.5358 12.6602Z" fill="#ACF3FF" fill-opacity="0.8"/>
</g>
<defs>
<clipPath id="clip0_20_1776">
<rect width="32" height="32" fill="white" transform="translate(44.3204 16) rotate(120)"/>
</clipPath>
</defs>
</svg>
