<svg width="27" height="25" viewBox="0 0 27 25" fill="none" xmlns="http://www.w3.org/2000/svg">
<g filter="url(#filter0_d_20_1365)">
<path d="M20.4285 22.8461C19.3328 22.8461 18.2928 22.44 17.485 21.7108C17.16 21.4338 16.8721 21.0923 16.6492 20.7138C16.2407 20.0492 16.0178 19.2646 16.0178 18.4615C16.0178 17.3077 16.4635 16.2277 17.2621 15.4061C18.0978 14.5477 19.2214 14.0769 20.4285 14.0769C21.6914 14.0769 22.8892 14.6123 23.7064 15.5354C24.4307 16.3385 24.8393 17.3723 24.8393 18.4615C24.8393 18.8123 24.7928 19.1631 24.7 19.4954C24.6071 19.9107 24.4307 20.3446 24.1892 20.7231C23.4185 22.0338 21.97 22.8461 20.4285 22.8461ZM20.4285 15.4615C19.6021 15.4615 18.8407 15.7846 18.265 16.3661C17.7171 16.9292 17.4107 17.6677 17.4107 18.4615C17.4107 19.0061 17.5593 19.5415 17.8471 20.003C17.9957 20.2615 18.1907 20.4923 18.4135 20.6861C18.9707 21.1938 19.6857 21.4708 20.4285 21.4708C21.4778 21.4708 22.4714 20.9169 23.01 20.0215C23.1678 19.7631 23.2885 19.4677 23.3535 19.1815C23.4185 18.9415 23.4464 18.7108 23.4464 18.4708C23.4464 17.7323 23.1678 17.0215 22.6664 16.4677C22.1093 15.8215 21.2921 15.4615 20.4285 15.4615Z" fill="white"/>
<path d="M21.8211 19.1353H19.0447C18.664 19.1353 18.3483 18.8215 18.3483 18.443C18.3483 18.0646 18.664 17.7507 19.0447 17.7507H21.8211C22.2018 17.7507 22.5175 18.0646 22.5175 18.443C22.5175 18.8215 22.2018 19.1353 21.8211 19.1353Z" fill="white"/>
<path d="M20.4285 20.5477C20.0478 20.5477 19.7321 20.2338 19.7321 19.8554V17.0954C19.7321 16.7169 20.0478 16.4031 20.4285 16.4031C20.8092 16.4031 21.1249 16.7169 21.1249 17.0954V19.8554C21.1249 20.2431 20.8092 20.5477 20.4285 20.5477Z" fill="white"/>
</g>
<path d="M16.7142 7.30156C16.6863 7.30156 16.6677 7.30156 16.6399 7.30156H16.5935C14.8385 7.24617 13.5292 5.89847 13.5292 4.23693C13.5292 2.53847 14.922 1.16309 16.6213 1.16309C18.3206 1.16309 19.7135 2.5477 19.7135 4.23693C19.7042 5.9077 18.3949 7.2554 16.7235 7.31078C16.7235 7.30155 16.7235 7.30156 16.7142 7.30156ZM16.6213 2.53848C15.6835 2.53848 14.922 3.2954 14.922 4.22771C14.922 5.14155 15.637 5.88002 16.5563 5.91694C16.5656 5.90771 16.6399 5.90771 16.7235 5.91694C17.6242 5.87079 18.3206 5.13232 18.3299 4.22771C18.3299 3.2954 17.5685 2.53848 16.6213 2.53848Z" fill="white"/>
<path d="M16.7236 14.1046C16.3614 14.1046 15.9993 14.0769 15.6371 14.0123C15.2564 13.9477 15.0057 13.5877 15.0707 13.2092C15.1357 12.8308 15.4978 12.5816 15.8786 12.6462C17.0207 12.84 18.2278 12.6277 19.0357 12.0923C19.4721 11.8062 19.7043 11.4462 19.7043 11.0862C19.7043 10.7262 19.4628 10.3754 19.0357 10.0892C18.2278 9.55386 17.0021 9.34155 15.8507 9.54463C15.47 9.61847 15.1078 9.36001 15.0428 8.98155C14.9778 8.60309 15.2286 8.24309 15.6093 8.17848C17.1228 7.91079 18.6921 8.19693 19.8064 8.93539C20.6236 9.48001 21.0971 10.2554 21.0971 11.0862C21.0971 11.9077 20.6328 12.6923 19.8064 13.2462C18.9614 13.8 17.8657 14.1046 16.7236 14.1046Z" fill="white"/>
<path d="M5.54361 7.30157C5.53432 7.30157 5.52504 7.30157 5.52504 7.30157C3.85361 7.24618 2.54432 5.89848 2.53503 4.23694C2.53503 2.53848 3.92789 1.15387 5.62718 1.15387C7.32646 1.15387 8.71932 2.53849 8.71932 4.22772C8.71932 5.89849 7.41004 7.24618 5.73861 7.30157L5.54361 6.60926L5.60861 7.30157C5.59004 7.30157 5.56218 7.30157 5.54361 7.30157ZM5.63646 5.91695C5.69218 5.91695 5.73861 5.91694 5.79432 5.92618C6.62075 5.88925 7.34503 5.15079 7.34503 4.23694C7.34503 3.30464 6.58361 2.54771 5.64575 2.54771C4.70789 2.54771 3.94646 3.30464 3.94646 4.23694C3.94646 5.14156 4.65218 5.87079 5.55289 5.92618C5.56218 5.91694 5.59932 5.91695 5.63646 5.91695Z" fill="white"/>
<path d="M5.53434 14.1046C4.39219 14.1046 3.29648 13.8 2.45148 13.2462C1.63434 12.7016 1.16077 11.9169 1.16077 11.0862C1.16077 10.2646 1.63434 9.48001 2.45148 8.93539C3.56577 8.19693 5.13505 7.91079 6.64862 8.17848C7.02934 8.24309 7.28005 8.60309 7.21505 8.98155C7.15005 9.36001 6.78791 9.61847 6.4072 9.54463C5.25577 9.34155 4.03934 9.55386 3.2222 10.0892C2.78577 10.3754 2.55362 10.7262 2.55362 11.0862C2.55362 11.4462 2.79505 11.8062 3.2222 12.0923C4.03005 12.6277 5.23719 12.84 6.37934 12.6462C6.76005 12.5816 7.1222 12.84 7.1872 13.2092C7.2522 13.5877 7.00148 13.9477 6.62077 14.0123C6.25862 14.0769 5.89648 14.1046 5.53434 14.1046Z" fill="white"/>
<path d="M11.1426 14.1969C11.1148 14.1969 11.0962 14.1969 11.0684 14.1969H11.0219C9.26693 14.1416 7.95764 12.7939 7.95764 11.1323C7.95764 9.43386 9.3505 8.05847 11.0498 8.05847C12.7491 8.05847 14.1419 9.44309 14.1419 11.1323C14.1326 12.8031 12.8234 14.1508 11.1519 14.2062C11.1519 14.1969 11.1519 14.1969 11.1426 14.1969ZM11.0498 9.43386C10.1119 9.43386 9.3505 10.1908 9.3505 11.1231C9.3505 12.0369 10.0655 12.7754 10.9848 12.8123C10.9941 12.8031 11.0684 12.8031 11.1519 12.8123C12.0526 12.7662 12.7491 12.0277 12.7584 11.1231C12.7584 10.2 11.9969 9.43386 11.0498 9.43386Z" fill="white"/>
<path d="M11.1426 21.0092C10.0283 21.0092 8.91405 20.7231 8.05048 20.1415C7.23334 19.5969 6.75977 18.8215 6.75977 17.9908C6.75977 17.1692 7.22405 16.3754 8.05048 15.8308C9.78691 14.6861 12.5076 14.6861 14.2348 15.8308C15.0519 16.3754 15.5255 17.1508 15.5255 17.9815C15.5255 18.8031 15.0612 19.5969 14.2348 20.1415C13.3712 20.7138 12.2569 21.0092 11.1426 21.0092ZM8.8212 16.9938C8.38477 17.28 8.15262 17.64 8.15262 18C8.15262 18.36 8.39405 18.7108 8.8212 18.9969C10.0748 19.8369 12.2012 19.8369 13.4548 18.9969C13.8912 18.7108 14.1233 18.3508 14.1233 17.9908C14.1233 17.6308 13.8819 17.28 13.4548 16.9938C12.2105 16.1538 10.0841 16.1631 8.8212 16.9938Z" fill="white"/>
<defs>
<filter id="filter0_d_20_1365" x="1.71423" y="-0.15387" width="26.2858" height="26.1539" filterUnits="userSpaceOnUse" color-interpolation-filters="sRGB">
<feFlood flood-opacity="0" result="BackgroundImageFix"/>
<feColorMatrix in="SourceAlpha" type="matrix" values="0 0 0 0 0 0 0 0 0 0 0 0 0 0 0 0 0 0 127 0" result="hardAlpha"/>
<feOffset/>
<feGaussianBlur stdDeviation="1"/>
<feComposite in2="hardAlpha" operator="out"/>
<feColorMatrix type="matrix" values="0 0 0 0 0 0 0 0 0 0 0 0 0 0 0 0 0 0 0.25 0"/>
<feBlend mode="normal" in2="BackgroundImageFix" result="effect1_dropShadow_20_1365"/>
<feBlend mode="normal" in="SourceGraphic" in2="effect1_dropShadow_20_1365" result="shape"/>
</filter>
</defs>
</svg>
