<svg width="20" height="20" viewBox="0 0 20 20" fill="none" xmlns="http://www.w3.org/2000/svg">
<g filter="url(#filter0_d_22_326)">
<path d="M9.66671 16.5C5.90004 16.5 2.83337 13.4334 2.83337 9.66671C2.83337 5.90004 5.90004 2.83337 9.66671 2.83337C13.4334 2.83337 16.5 5.90004 16.5 9.66671C16.5 13.4334 13.4334 16.5 9.66671 16.5ZM9.66671 3.83337C6.44671 3.83337 3.83337 6.45337 3.83337 9.66671C3.83337 12.88 6.44671 15.5 9.66671 15.5C12.8867 15.5 15.5 12.88 15.5 9.66671C15.5 6.45337 12.8867 3.83337 9.66671 3.83337Z" fill="white"/>
<path d="M16.6666 17.1666C16.54 17.1666 16.4133 17.12 16.3133 17.02L14.98 15.6866C14.7866 15.4933 14.7866 15.1733 14.98 14.98C15.1733 14.7866 15.4933 14.7866 15.6866 14.98L17.02 16.3133C17.2133 16.5066 17.2133 16.8266 17.02 17.02C16.92 17.12 16.7933 17.1666 16.6666 17.1666Z" fill="white"/>
</g>
<defs>
<filter id="filter0_d_22_326" x="0" y="0" width="20" height="20" filterUnits="userSpaceOnUse" color-interpolation-filters="sRGB">
<feFlood flood-opacity="0" result="BackgroundImageFix"/>
<feColorMatrix in="SourceAlpha" type="matrix" values="0 0 0 0 0 0 0 0 0 0 0 0 0 0 0 0 0 0 127 0" result="hardAlpha"/>
<feOffset/>
<feGaussianBlur stdDeviation="1"/>
<feComposite in2="hardAlpha" operator="out"/>
<feColorMatrix type="matrix" values="0 0 0 0 0 0 0 0 0 0 0 0 0 0 0 0 0 0 0.25 0"/>
<feBlend mode="normal" in2="BackgroundImageFix" result="effect1_dropShadow_22_326"/>
<feBlend mode="normal" in="SourceGraphic" in2="effect1_dropShadow_22_326" result="shape"/>
</filter>
</defs>
</svg>
