<svg width="20" height="20" viewBox="0 0 20 20" fill="none" xmlns="http://www.w3.org/2000/svg">
<g filter="url(#filter0_d_20_1703)">
<path d="M9.66671 16.5C5.90004 16.5 2.83337 13.4333 2.83337 9.66668C2.83337 5.90001 5.90004 2.83334 9.66671 2.83334C13.4334 2.83334 16.5 5.90001 16.5 9.66668C16.5 13.4333 13.4334 16.5 9.66671 16.5ZM9.66671 3.83334C6.44671 3.83334 3.83337 6.45334 3.83337 9.66668C3.83337 12.88 6.44671 15.5 9.66671 15.5C12.8867 15.5 15.5 12.88 15.5 9.66668C15.5 6.45334 12.8867 3.83334 9.66671 3.83334Z" fill="#ACF3FF" fill-opacity="0.8"/>
<path d="M16.6666 17.1667C16.54 17.1667 16.4133 17.12 16.3133 17.02L14.98 15.6867C14.7866 15.4933 14.7866 15.1733 14.98 14.98C15.1733 14.7867 15.4933 14.7867 15.6866 14.98L17.02 16.3133C17.2133 16.5067 17.2133 16.8267 17.02 17.02C16.92 17.12 16.7933 17.1667 16.6666 17.1667Z" fill="#ACF3FF" fill-opacity="0.8"/>
</g>
<defs>
<filter id="filter0_d_20_1703" x="0" y="0" width="20" height="20" filterUnits="userSpaceOnUse" color-interpolation-filters="sRGB">
<feFlood flood-opacity="0" result="BackgroundImageFix"/>
<feColorMatrix in="SourceAlpha" type="matrix" values="0 0 0 0 0 0 0 0 0 0 0 0 0 0 0 0 0 0 127 0" result="hardAlpha"/>
<feOffset/>
<feGaussianBlur stdDeviation="1"/>
<feComposite in2="hardAlpha" operator="out"/>
<feColorMatrix type="matrix" values="0 0 0 0 0 0 0 0 0 0 0 0 0 0 0 0 0 0 0.25 0"/>
<feBlend mode="normal" in2="BackgroundImageFix" result="effect1_dropShadow_20_1703"/>
<feBlend mode="normal" in="SourceGraphic" in2="effect1_dropShadow_20_1703" result="shape"/>
</filter>
</defs>
</svg>
