<svg width="32" height="34" viewBox="0 0 32 34" fill="none" xmlns="http://www.w3.org/2000/svg">
<g filter="url(#filter0_d_20_1686)">
<path fill-rule="evenodd" clip-rule="evenodd" d="M16 10.5012C12.4277 10.5012 9.53845 13.4071 9.53845 17C9.53845 20.593 12.4277 23.4989 16 23.4989C19.5723 23.4989 22.4615 20.593 22.4615 17C22.4615 13.4071 19.5723 10.5012 16 10.5012ZM11.3846 17C11.3846 14.4376 13.4523 12.358 16 12.358C18.5477 12.358 20.6154 14.4376 20.6154 17C20.6154 19.5625 18.5477 21.6421 16 21.6421C13.4523 21.6421 11.3846 19.5625 11.3846 17Z" fill="white"/>
<path fill-rule="evenodd" clip-rule="evenodd" d="M18.1231 4.55008C16.8031 3.81664 15.1969 3.81664 13.8769 4.55008L6.15073 8.94145L6.14149 8.95075C4.83072 9.70276 4.00923 11.0953 4 12.6086V21.3821V21.3914C4.00923 22.9047 4.83072 24.2972 6.14149 25.0493L13.8676 29.4406L13.8769 29.4499C15.1969 30.1834 16.8031 30.1834 18.1231 29.4499L25.8493 25.0585L25.8585 25.0493C27.1693 24.2972 27.9908 22.9047 28 21.3914V12.6179V12.6086C27.9908 11.0953 27.1693 9.70276 25.8585 8.95075L18.1324 4.55938L18.1231 4.55008ZM7.06457 10.5569L14.7723 6.1748C15.5293 5.75702 16.4707 5.75702 17.2277 6.1748L24.9354 10.5569C25.6924 10.9932 26.1446 11.7824 26.1538 12.6179V21.3821C26.1446 22.2176 25.6924 23.0068 24.9354 23.4431L17.2277 27.8252C16.4707 28.243 15.5293 28.243 14.7723 27.8252L7.06457 23.4431C6.30764 23.0068 5.85538 22.2176 5.84615 21.3821V12.6179C5.85538 11.7824 6.30764 10.9932 7.06457 10.5569Z" fill="white"/>
</g>
<defs>
<filter id="filter0_d_20_1686" x="0" y="0" width="32" height="34" filterUnits="userSpaceOnUse" color-interpolation-filters="sRGB">
<feFlood flood-opacity="0" result="BackgroundImageFix"/>
<feColorMatrix in="SourceAlpha" type="matrix" values="0 0 0 0 0 0 0 0 0 0 0 0 0 0 0 0 0 0 127 0" result="hardAlpha"/>
<feOffset/>
<feGaussianBlur stdDeviation="2"/>
<feComposite in2="hardAlpha" operator="out"/>
<feColorMatrix type="matrix" values="0 0 0 0 0 0 0 0 0 0 0 0 0 0 0 0 0 0 0.25 0"/>
<feBlend mode="normal" in2="BackgroundImageFix" result="effect1_dropShadow_20_1686"/>
<feBlend mode="normal" in="SourceGraphic" in2="effect1_dropShadow_20_1686" result="shape"/>
</filter>
</defs>
</svg>
