<svg width="25" height="26" viewBox="0 0 25 26" fill="none" xmlns="http://www.w3.org/2000/svg">
<g filter="url(#filter0_d_22_325)">
<path d="M12 13.75C8.83 13.75 6.25 11.17 6.25 8C6.25 4.83 8.83 2.25 12 2.25C15.17 2.25 17.75 4.83 17.75 8C17.75 11.17 15.17 13.75 12 13.75ZM12 3.75C9.66 3.75 7.75 5.66 7.75 8C7.75 10.34 9.66 12.25 12 12.25C14.34 12.25 16.25 10.34 16.25 8C16.25 5.66 14.34 3.75 12 3.75Z" fill="white"/>
<path d="M3.41016 23.75C3.00016 23.75 2.66016 23.41 2.66016 23C2.66016 18.73 6.85015 15.25 12.0002 15.25C13.0102 15.25 14.0001 15.38 14.9601 15.65C15.3601 15.76 15.5902 16.17 15.4802 16.57C15.3702 16.97 14.9602 17.2 14.5602 17.09C13.7402 16.86 12.8802 16.75 12.0002 16.75C7.68015 16.75 4.16016 19.55 4.16016 23C4.16016 23.41 3.82016 23.75 3.41016 23.75Z" fill="white"/>
<path d="M18 23.75C16.82 23.75 15.7 23.31 14.83 22.52C14.48 22.22 14.17 21.85 13.93 21.44C13.49 20.72 13.25 19.87 13.25 19C13.25 17.75 13.73 16.58 14.59 15.69C15.49 14.76 16.7 14.25 18 14.25C19.36 14.25 20.65 14.83 21.53 15.83C22.31 16.7 22.75 17.82 22.75 19C22.75 19.38 22.7 19.76 22.6 20.12C22.5 20.57 22.31 21.04 22.05 21.45C21.22 22.87 19.66 23.75 18 23.75ZM18 15.75C17.11 15.75 16.29 16.1 15.67 16.73C15.08 17.34 14.75 18.14 14.75 19C14.75 19.59 14.91 20.17 15.22 20.67C15.38 20.95 15.59 21.2 15.83 21.41C16.43 21.96 17.2 22.26 18 22.26C19.13 22.26 20.2 21.66 20.78 20.69C20.95 20.41 21.08 20.09 21.15 19.78C21.22 19.52 21.25 19.27 21.25 19.01C21.25 18.21 20.95 17.44 20.41 16.84C19.81 16.14 18.93 15.75 18 15.75Z" fill="white"/>
<path d="M19.4998 19.73H16.5098C16.0998 19.73 15.7598 19.39 15.7598 18.98C15.7598 18.57 16.0998 18.23 16.5098 18.23H19.4998C19.9098 18.23 20.2498 18.57 20.2498 18.98C20.2498 19.39 19.9098 19.73 19.4998 19.73Z" fill="white"/>
<path d="M18 21.26C17.59 21.26 17.25 20.92 17.25 20.51V17.52C17.25 17.11 17.59 16.77 18 16.77C18.41 16.77 18.75 17.11 18.75 17.52V20.51C18.75 20.93 18.41 21.26 18 21.26Z" fill="white"/>
</g>
<defs>
<filter id="filter0_d_22_325" x="-2" y="-1" width="28" height="28" filterUnits="userSpaceOnUse" color-interpolation-filters="sRGB">
<feFlood flood-opacity="0" result="BackgroundImageFix"/>
<feColorMatrix in="SourceAlpha" type="matrix" values="0 0 0 0 0 0 0 0 0 0 0 0 0 0 0 0 0 0 127 0" result="hardAlpha"/>
<feOffset/>
<feGaussianBlur stdDeviation="1"/>
<feComposite in2="hardAlpha" operator="out"/>
<feColorMatrix type="matrix" values="0 0 0 0 0 0 0 0 0 0 0 0 0 0 0 0 0 0 0.25 0"/>
<feBlend mode="normal" in2="BackgroundImageFix" result="effect1_dropShadow_22_325"/>
<feBlend mode="normal" in="SourceGraphic" in2="effect1_dropShadow_22_325" result="shape"/>
</filter>
</defs>
</svg>
